<svg xmlns="http://www.w3.org/2000/svg" version="1.1" xmlns:xlink="http://www.w3.org/1999/xlink" xmlns:svgjs="http://svgjs.dev/svgjs" width="1500" height="1687" viewBox="0 0 1500 1687"><g transform="matrix(1,0,0,1,0.00011015625000254659,0)"><svg viewBox="0 0 320 360" data-background-color="#ffffff" preserveAspectRatio="xMidYMid meet" height="1687" width="1500" xmlns="http://www.w3.org/2000/svg" xmlns:xlink="http://www.w3.org/1999/xlink"><g id="tight-bounds" transform="matrix(1,0,0,1,0.000023499999997511622,0)"><svg viewBox="0 0 320 360" height="360" width="320"><g><svg></svg></g><g><svg viewBox="0 0 320 360" height="360" width="320"><g><path transform="translate(-74.99272,-51.79039) scale(4.65793,4.65793)" d="M20.6 59.9l0.8 1-0.4-1.3c-0.1-0.6-0.8 0.1-0.4 0.3M21.5 59.3c0.3 0.5 0.6 1 0.6 1.5 0 0.7 0.6 1 1.1 1.2-0.7-0.8-1.1-3-1.7-2.7M59.9 16.9c1.7 0 3.3-0.2 5.1 0.2 4.4 1.1 8.1 3.3 10.6 6.4l7 11.2c0.3 2.8 0.9 5.9 0.8 9.3 0.7 0 0.6-1 1.4-1.2-0.8 2-1.2 4.5-1.4 7.4-0.5-1.6 0-4 0.1-5.3-0.7 1.1-1.1 0.3-1.1-0.2 0.1-0.8-0.3-0.7-0.6-1-1.1-1-1.8-2.1-2.6-3.8 0.5-1.3 0.6-3.2-1-4.2-0.5-0.3-1.1-0.8-1.4-1.6-0.4-1.1-1.1-2.4-0.9-4.1 0.1-0.5-1.5 1.1-2.4 0.4-3.9-2.7-7.8-5.8-12.5-8.4-2.5 0-4.3-0.9-5.2-2-0.8-1-0.2-2.3 1-2.4 0.7 0 1.5-0.2 2.1 0.2 0.1-0.4 0.5-0.9 1-0.9M50 14.6l0.2 0.1c1 0.2 1.5 1.6 2.6 1.1 0 0.7 0.1 1.4-0.1 1.9-0.3 0.8-1.2 0.8-1.9 0.8-6.7-0.4-10.6 2.4-14.7 4.8-1.1 0.7-2.3 1.2-3.2 2.1-4.3 4-9 7.7-10.1 15.1l-0.9 8.2c-0.1 0.9-1.1 1.8-0.9 2.9l0.7 4.9c-0.7-0.7-1.1 0.2-0.9 0.6 0.1 0.3 0.5 1.3 1.1 0.4 0.8 1.5 1.6 4.4 2.7 5.7 3.4 4 7.8 7.6 11.4 11.2 0.9-0.2 1.6-0.2 1.8-0.8 0.3 0.6-0.3 1.2-0.8 1.3 1.6 1 3.4 1.9 5.8 2.1 3.1 0.2 6 0.7 8.7 1.4 1.4-0.4 2.8-0.6 4.3-0.7 0.5 0 0.8-0.8 1.4-1l0.1-1c0.6 0.9 0.5-0.3 0.1-0.9 0.7 0.6 0.9 1.1 1.2 1.5 0-0.3 0.8-1.4 0.8-0.1l0.2-1.3c0.3-0.2 0.4 1.1 0.7 0.2 0.3-0.9 0.9-0.2 1.5-0.5-0.2 0.4-0.1 1.2 0.6 0.7l0.8-0.7c0.5 1.2 1.3 0.7 1.7 0.5 4.4-2.8 8.8-6.1 13-9.4l-0.1 1.3 0.5-1.6c0.5 0.5 0.9 0.1 1.1-0.2 0.6-1 1.4-2 2.7-2.9-1.6 4.3-3.5 7.7-5.9 10.5l-1 1.2c0 0.7-0.2 1.6-1 1.7-0.4 0.1-1.2-0.2-1.8 0.4-0.3 0.4 0.7 1.2-0.1 0.6-0.7-0.5-1.4 0-2.2 0.2-0.6 0.2 0.4 0.8 0.6 1.2 0.2 0.4 0.4 0.8 0.3 1.3l-1.1-1.2c-1.3 0.7-2.1 2-3.2 3-0.5 0.4-0.3 1.1-0.3 1.7-0.7 0-1.5-0.2-1.9 0.2-0.3 0.4-0.2 1-0.2 1.6-1-0.1-1.1-1.6-2-1.3-0.9 0.2-1.9 0.3-2.7 0.8 0.6 1.2-1 0.5-0.8 0.7-1.5-0.9-2.8-1.6-4.4-1-3.4-1.1-7.6-0.6-10.7-0.2 0-0.5 0.1-1-0.1-1.1-0.2 0.5-0.8 0.3-0.7 0.3-1.9-1.3-3.8-2.1-5.8-3.2-1.8 0.2-3.5-0.7-4-1.2-1.4-1.3-3-0.6-4.3-0.9-2.8-0.7-3.8-3.6-4.1-5.6-0.2-1-1-1.4-1.3-1.3-1.3-4.2-3.3-8-4.9-11.9-0.4-1-0.3-2-0.3-3.1 0.5 0.2 1 0.1 0.9-0.6-0.5-3.3-1.7-5.8-3-8.2 0.7-3.4 0.8-7.4 2.4-10.4 1.4-2.7 4-4.1 5.8-6.4 0.6-0.8 0.6-1.9 1.2-2.6 2-2 4-4.1 6.2-5.9 1-0.8 2.2 0 3.7-0.3 0.5-1.8 2.5-3.4 4.4-2.9 0.8 0.2 2.4-1.9 2.9-2.1 0.8-0.3 0.4 0.8 0.4 1.5 1.9-1.5 4.5-2.3 6.9-3.2" fill="#264f0b" fill-rule="nonzero" stroke="none" stroke-width="1" stroke-linecap="butt" stroke-linejoin="miter" stroke-miterlimit="10" stroke-dasharray="" stroke-dashoffset="0" font-family="none" font-weight="none" font-size="none" text-anchor="none" style="mix-blend-mode: normal" data-fill-palette-color="tertiary"></path></g><g transform="matrix(1,0,0,1,64,119.16000362175977)"><svg viewBox="0 0 192 121.67999275648046" height="121.67999275648046" width="192"><g><svg viewBox="0 0 192 121.67999275648046" height="121.67999275648046" width="192"><g><svg viewBox="0 0 192 121.67999275648046" height="121.67999275648046" width="192"><g transform="matrix(1,0,0,1,0,73.54563715224535)"><svg viewBox="0 0 192 48.13435560423512" height="48.13435560423512" width="192"><g id="textblocktransform"><svg viewBox="0 0 192 48.13435560423512" height="48.13435560423512" width="192" id="textblock"><g><svg viewBox="0 0 192 48.13435560423512" height="48.13435560423512" width="192"><g transform="matrix(1,0,0,1,0,0)"><svg width="192" viewBox="3.25 -39 205.41 51.5" height="48.13435560423512" data-palette-color="#264f0b"><path d="M26.98-26.18L26.98-26.18Q27.03-25.55 27.08-25.4 27.13-25.25 27.8-25.25L27.8-25.25 28.9-25.25Q29.38-25.25 29.56-25.34 29.75-25.43 29.75-25.9L29.75-25.9 29.75-36.68Q29.75-37.18 29.64-37.34 29.53-37.5 29.05-37.5L29.05-37.5 27.45-37.5Q27.15-37.5 27.06-37.45 26.98-37.4 26.88-37.2L26.88-37.2 26.1-35.43Q25.83-34.75 25.53-34.77 25.23-34.8 24.8-35.18L24.8-35.18Q23.3-36.48 21.21-37.24 19.13-38 16.75-38L16.75-38Q14.3-38 12.13-37.39 9.95-36.77 8.29-35.5 6.63-34.23 5.69-32.3 4.75-30.38 4.75-27.75L4.75-27.75Q4.75-24.75 5.94-22.9 7.13-21.05 9.09-19.96 11.05-18.88 13.4-18.21 15.75-17.55 18.1-16.96 20.45-16.38 22.41-15.51 24.38-14.65 25.56-13.19 26.75-11.73 26.75-9.25L26.75-9.25Q26.75-7.53 25.79-5.8 24.83-4.08 22.74-2.94 20.65-1.8 17.25-1.8L17.25-1.8Q13.85-1.8 11.43-3.34 9-4.88 7.64-7.2 6.28-9.53 6.05-11.9L6.05-11.9Q6.03-12.33 5.89-12.54 5.75-12.75 5.25-12.75L5.25-12.75 4.2-12.75Q3.68-12.75 3.46-12.66 3.25-12.58 3.25-12.05L3.25-12.05 3.25-0.6Q3.25-0.05 3.44 0.1 3.63 0.25 4.2 0.25L4.2 0.25 4.98 0.25Q5.7 0.25 5.89 0.15 6.08 0.05 6.28-0.45L6.28-0.45 7.05-2.38Q7.35-3.13 7.58-3.18 7.8-3.23 8.35-2.73L8.35-2.73Q10.05-1.23 12.49-0.24 14.93 0.75 17.75 0.75L17.75 0.75Q22.03 0.75 25.05-0.6 28.08-1.95 29.66-4.48 31.25-7 31.25-10.5L31.25-10.5Q31.25-13.73 30.06-15.74 28.88-17.75 26.91-18.95 24.95-20.15 22.6-20.88 20.25-21.6 17.9-22.19 15.55-22.78 13.59-23.55 11.63-24.33 10.44-25.66 9.25-27 9.25-29.25L9.25-29.25Q9.25-31.85 11.08-33.65 12.9-35.45 17.25-35.45L17.25-35.45Q19.95-35.45 22.08-34.26 24.2-33.08 25.49-30.99 26.78-28.9 26.98-26.18ZM35.87-12.5L35.87-12.5Q35.87-9 37.21-6.04 38.55-3.08 41.15-1.29 43.75 0.5 47.52 0.5L47.52 0.5Q50.7 0.5 52.92-0.6 55.15-1.7 56.55-3.64 57.95-5.58 58.65-8.13L58.65-8.13Q58.72-8.4 58.62-8.53 58.52-8.65 58.15-8.65L58.15-8.65 56.7-8.65Q56.32-8.65 56.22-8.49 56.12-8.33 56.02-8.05L56.02-8.05Q55.02-5.3 53.06-3.63 51.1-1.95 48.12-1.95L48.12-1.95Q45.55-1.95 43.96-3.39 42.37-4.83 41.65-7.2 40.92-9.58 40.92-12.33L40.92-12.33Q40.92-12.75 41.14-12.9 41.35-13.05 41.75-13.05L41.75-13.05 57.82-13.05Q58.35-13.05 58.54-13.16 58.72-13.28 58.72-13.78L58.72-13.78Q58.72-15.55 58.37-17.36 58.02-19.18 57.25-20.81 56.47-22.45 55.21-23.74 53.95-25.03 52.14-25.76 50.32-26.5 47.87-26.5L47.87-26.5Q43.85-26.5 41.19-24.66 38.52-22.83 37.2-19.66 35.87-16.5 35.87-12.5ZM53.02-15.2L41.72-15.2Q41.27-15.2 41.15-15.33 41.02-15.45 41.02-15.83L41.02-15.83Q41.02-17.8 41.77-19.75 42.52-21.7 44.05-23 45.57-24.3 47.87-24.3L47.87-24.3Q49.4-24.3 50.5-23.43 51.6-22.55 52.32-21.19 53.05-19.83 53.4-18.34 53.75-16.85 53.75-15.6L53.75-15.6Q53.75-15.35 53.64-15.28 53.52-15.2 53.02-15.2L53.02-15.2ZM78-4.88L78-4.88Q78.12-5.2 78.01-5.33 77.9-5.45 77.6-5.55L77.6-5.55 76.8-5.83Q76.4-5.98 76.26-5.9 76.12-5.83 75.95-5.45L75.95-5.45Q75.3-4.03 74.43-3.26 73.57-2.5 72.5-2.5L72.5-2.5Q71.5-2.5 70.9-3.18 70.3-3.85 70.3-5.35L70.3-5.35 70.3-22.43Q70.3-23 70.55-23.13 70.8-23.25 71.32-23.25L71.32-23.25 76.82-23.25Q77.27-23.25 77.46-23.34 77.65-23.43 77.65-23.88L77.65-23.88 77.65-25.18Q77.65-25.7 77.48-25.85 77.32-26 76.82-26L76.82-26 71.27-26Q70.8-26 70.55-26.13 70.3-26.25 70.3-26.78L70.3-26.78 70.3-32.27Q70.3-33 69.65-33L69.65-33 68.3-33Q67.75-33 67.62-32.85 67.5-32.7 67.4-32.27L67.4-32.27Q66.9-30.1 66.47-28.83 66.05-27.55 65.5-26.95 64.95-26.35 64.1-26.18 63.25-26 61.9-26L61.9-26Q61.42-26 61.28-25.91 61.15-25.83 61.15-25.35L61.15-25.35 61.15-24Q61.15-23.5 61.32-23.38 61.5-23.25 62.02-23.25L62.02-23.25 65-23.25Q65.45-23.25 65.62-23.05 65.8-22.85 65.8-22.4L65.8-22.4 65.8-4.3Q65.8-2.25 66.97-0.83 68.15 0.6 70.85 0.6L70.85 0.6Q72.8 0.6 74.21-0.14 75.62-0.88 76.56-2.13 77.5-3.38 78-4.88ZM95.74-4.88L95.74-4.88Q95.87-5.2 95.76-5.33 95.64-5.45 95.34-5.55L95.34-5.55 94.54-5.83Q94.14-5.98 94.01-5.9 93.87-5.83 93.69-5.45L93.69-5.45Q93.04-4.03 92.18-3.26 91.32-2.5 90.24-2.5L90.24-2.5Q89.24-2.5 88.64-3.18 88.04-3.85 88.04-5.35L88.04-5.35 88.04-22.43Q88.04-23 88.29-23.13 88.54-23.25 89.07-23.25L89.07-23.25 94.57-23.25Q95.02-23.25 95.21-23.34 95.39-23.43 95.39-23.88L95.39-23.88 95.39-25.18Q95.39-25.7 95.23-25.85 95.07-26 94.57-26L94.57-26 89.02-26Q88.54-26 88.29-26.13 88.04-26.25 88.04-26.78L88.04-26.78 88.04-32.27Q88.04-33 87.39-33L87.39-33 86.04-33Q85.49-33 85.37-32.85 85.24-32.7 85.14-32.27L85.14-32.27Q84.64-30.1 84.22-28.83 83.79-27.55 83.24-26.95 82.69-26.35 81.84-26.18 80.99-26 79.64-26L79.64-26Q79.17-26 79.03-25.91 78.89-25.83 78.89-25.35L78.89-25.35 78.89-24Q78.89-23.5 79.07-23.38 79.24-23.25 79.77-23.25L79.77-23.25 82.74-23.25Q83.19-23.25 83.37-23.05 83.54-22.85 83.54-22.4L83.54-22.4 83.54-4.3Q83.54-2.25 84.72-0.83 85.89 0.6 88.59 0.6L88.59 0.6Q90.54 0.6 91.96-0.14 93.37-0.88 94.31-2.13 95.24-3.38 95.74-4.88ZM98.07-36.25L100.82-36.25Q101.39-36.25 101.57-36.1 101.74-35.95 101.74-35.4L101.74-35.4 101.74-3.6Q101.74-3 101.65-2.88 101.57-2.75 100.97-2.75L100.97-2.75 97.87-2.75Q97.42-2.75 97.33-2.55 97.24-2.35 97.24-1.9L97.24-1.9 97.24-0.9Q97.24-0.3 97.45-0.15 97.67 0 98.22 0L98.22 0 109.57 0Q110.22 0 110.48-0.15 110.74-0.3 110.74-1L110.74-1 110.74-2.1Q110.74-2.5 110.58-2.63 110.42-2.75 110.07-2.75L110.07-2.75 107.02-2.75Q106.32-2.75 106.28-2.98 106.24-3.2 106.24-3.85L106.24-3.85 106.24-38.1Q106.24-38.75 106-38.88 105.77-39 105.12-39L105.12-39 98.27-39Q97.79-39 97.52-38.89 97.24-38.78 97.24-38.25L97.24-38.25 97.24-37.3Q97.24-36.77 97.37-36.51 97.49-36.25 98.07-36.25L98.07-36.25ZM113.39-12.5L113.39-12.5Q113.39-9 114.73-6.04 116.06-3.08 118.66-1.29 121.26 0.5 125.04 0.5L125.04 0.5Q128.21 0.5 130.44-0.6 132.66-1.7 134.06-3.64 135.46-5.58 136.16-8.13L136.16-8.13Q136.24-8.4 136.14-8.53 136.04-8.65 135.66-8.65L135.66-8.65 134.21-8.65Q133.84-8.65 133.74-8.49 133.64-8.33 133.54-8.05L133.54-8.05Q132.54-5.3 130.58-3.63 128.61-1.95 125.64-1.95L125.64-1.95Q123.06-1.95 121.48-3.39 119.89-4.83 119.16-7.2 118.44-9.58 118.44-12.33L118.44-12.33Q118.44-12.75 118.65-12.9 118.86-13.05 119.26-13.05L119.26-13.05 135.34-13.05Q135.86-13.05 136.05-13.16 136.24-13.28 136.24-13.78L136.24-13.78Q136.24-15.55 135.89-17.36 135.54-19.18 134.76-20.81 133.99-22.45 132.73-23.74 131.46-25.03 129.65-25.76 127.84-26.5 125.39-26.5L125.39-26.5Q121.36-26.5 118.7-24.66 116.04-22.83 114.71-19.66 113.39-16.5 113.39-12.5ZM130.54-15.2L119.24-15.2Q118.79-15.2 118.66-15.33 118.54-15.45 118.54-15.83L118.54-15.83Q118.54-17.8 119.29-19.75 120.04-21.7 121.56-23 123.09-24.3 125.39-24.3L125.39-24.3Q126.91-24.3 128.01-23.43 129.11-22.55 129.84-21.19 130.56-19.83 130.91-18.34 131.26-16.85 131.26-15.6L131.26-15.6Q131.26-15.35 131.15-15.28 131.04-15.2 130.54-15.2L130.54-15.2ZM163.76-34.75L168.21-34.75Q168.94-34.75 169.1-34.55 169.26-34.35 169.26-33.63L169.26-33.63 169.26-15Q169.26-10.45 168.3-7.64 167.34-4.83 165.1-3.54 162.86-2.25 159.01-2.25L159.01-2.25Q154.91-2.25 152.62-3.98 150.34-5.7 149.42-8.7 148.51-11.7 148.51-15.5L148.51-15.5 148.51-33.63Q148.51-34.43 148.74-34.59 148.96-34.75 149.76-34.75L149.76-34.75 153.31-34.75Q154.04-34.75 154.27-34.93 154.51-35.1 154.51-35.88L154.51-35.88 154.51-36.58Q154.51-37.23 154.24-37.36 153.96-37.5 153.36-37.5L153.36-37.5 139.31-37.5Q138.76-37.5 138.51-37.36 138.26-37.23 138.26-36.63L138.26-36.63 138.26-35.83Q138.26-35.2 138.37-34.98 138.49-34.75 139.11-34.75L139.11-34.75 142.51-34.75Q143.16-34.75 143.46-34.6 143.76-34.45 143.76-33.73L143.76-33.73 143.76-15Q143.76-11.58 144.54-8.69 145.31-5.8 147.01-3.69 148.71-1.58 151.49-0.41 154.26 0.75 158.26 0.75L158.26 0.75Q165.69 0.75 168.97-3.1 172.26-6.95 172.26-15L172.26-15 172.26-33.77Q172.26-34.45 172.46-34.6 172.66-34.75 173.36-34.75L173.36-34.75 176.71-34.75Q177.31-34.75 177.54-34.9 177.76-35.05 177.76-35.68L177.76-35.68 177.76-36.52Q177.76-37.2 177.54-37.35 177.31-37.5 176.66-37.5L176.66-37.5 164.01-37.5Q163.41-37.5 163.21-37.34 163.01-37.18 163.01-36.52L163.01-36.52 163.01-35.58Q163.01-35.08 163.15-34.91 163.29-34.75 163.76-34.75L163.76-34.75ZM189.26-13L189.26-13Q189.26-15.85 190.16-18.34 191.06-20.83 192.72-22.36 194.38-23.9 196.66-23.9L196.66-23.9Q198.76-23.9 200.33-22.36 201.91-20.83 202.78-18.34 203.66-15.85 203.66-13L203.66-13Q203.66-10.15 202.78-7.66 201.91-5.18 200.33-3.64 198.76-2.1 196.66-2.1L196.66-2.1Q194.38-2.1 192.72-3.64 191.06-5.18 190.16-7.66 189.26-10.15 189.26-13ZM180.26-25.2L180.26-24.25Q180.26-23.7 180.4-23.48 180.53-23.25 181.13-23.25L181.13-23.25 183.63-23.25Q184.26-23.25 184.51-23.1 184.76-22.95 184.76-22.3L184.76-22.3 184.76 8.6Q184.76 9.3 184.62 9.53 184.48 9.75 183.78 9.75L183.78 9.75 180.93 9.75Q180.46 9.75 180.36 9.93 180.26 10.1 180.26 10.6L180.26 10.6 180.26 11.6Q180.26 12.08 180.4 12.29 180.53 12.5 181.03 12.5L181.03 12.5 192.98 12.5Q193.51 12.5 193.63 12.39 193.76 12.28 193.76 11.73L193.76 11.73 193.76 10.7Q193.76 10.1 193.61 9.93 193.46 9.75 192.88 9.75L192.88 9.75 190.43 9.75Q189.68 9.75 189.47 9.56 189.26 9.38 189.26 8.6L189.26 8.6 189.26-1.95Q189.26-3.95 189.48-4.11 189.71-4.28 190.26-3.45L190.26-3.45Q191.51-1.6 193.37-0.58 195.23 0.45 197.56 0.45L197.56 0.45Q200.53 0.45 203.06-1.14 205.58-2.73 207.12-5.74 208.66-8.75 208.66-13L208.66-13Q208.66-17.25 207.12-20.28 205.58-23.3 203.06-24.9 200.53-26.5 197.56-26.5L197.56-26.5Q195.03-26.5 192.98-25.19 190.93-23.88 189.71-21.65L189.71-21.65Q189.48-21.25 189.37-21.31 189.26-21.38 189.26-22.3L189.26-22.3 189.26-25.15Q189.26-25.73 189.08-25.86 188.91-26 188.33-26L188.33-26 181.18-26Q180.71-26 180.48-25.88 180.26-25.75 180.26-25.2L180.26-25.2Z" opacity="1" transform="matrix(1,0,0,1,0,0)" fill="#264f0b" class="wordmark-text-0" data-fill-palette-color="primary" id="text-0"></path></svg></g></svg></g></svg></g></svg></g><g transform="matrix(1,0,0,1,61.683715027771505,0)"><svg viewBox="0 0 68.63256994445699 66.52167944505294" height="66.52167944505294" width="68.63256994445699"><g><svg xmlns="http://www.w3.org/2000/svg" xml:space="preserve" viewBox="5.399999999999999 6.965 89.9 87.135" x="0" y="0" height="66.52167944505294" width="68.63256994445699" class="icon-icon-0" data-fill-palette-color="accent" id="icon-0"><path d="M27.4 94.1c-0.2 0-0.5-0.1-0.7-0.2-0.7-0.4-0.9-1.3-0.6-2L73.7 7.7c0.4-0.7 1.3-0.9 2-0.6 0.7 0.4 0.9 1.3 0.6 2L28.7 93.4c-0.3 0.5-0.8 0.7-1.3 0.7M22.9 57.9c-9.7 0-17.5-10-17.5-22.3s7.9-22.3 17.5-22.3 17.5 10 17.5 22.3-7.9 22.3-17.5 22.3m0-41.6c-8.1 0-14.6 8.7-14.6 19.3S14.8 55 22.9 55s14.6-8.7 14.6-19.3-6.6-19.4-14.6-19.4M77.8 87.6c-9.7 0-17.5-10-17.5-22.3S68.2 43 77.8 43c9.7 0 17.5 10 17.5 22.3s-7.8 22.3-17.5 22.3m0-41.6c-8.1 0-14.6 8.7-14.6 19.3 0 10.7 6.6 19.3 14.6 19.3 8.1 0 14.6-8.7 14.6-19.3 0.1-10.6-6.5-19.3-14.6-19.3" fill="#fd6c23" data-fill-palette-color="accent"></path></svg></g></svg></g><g></g></svg></g></svg></g></svg></g></svg></g><defs></defs></svg><rect width="320" height="360" fill="none" stroke="none" visibility="hidden"></rect></g></svg></g></svg>